<?xml version="1.0" encoding="UTF-8"?>
<svg width="290px" height="62px" viewBox="0 0 290 62" version="1.1" xmlns="http://www.w3.org/2000/svg" xmlns:xlink="http://www.w3.org/1999/xlink">
    <!-- Generator: Sketch 46.2 (44496) - http://www.bohemiancoding.com/sketch -->
    <title>title</title>
    <desc>Created with Sketch.</desc>
    <defs>
        <polygon id="path-1" points="0 62 0 0 290 0 290 62"></polygon>
    </defs>
    <g id="designs" stroke="none" stroke-width="1" fill="none" fill-rule="evenodd">
        <g id="1.4-game-screen-status-1" transform="translate(-15.000000, -41.000000)">
            <g id="title" transform="translate(15.000000, 41.000000)">
                <mask id="mask-2" fill="white">
                    <use xlink:href="#path-1"></use>
                </mask>
                <g id="Clip-2"></g>
                <path d="M285.199593,46.8767139 C289.689083,43.0440311 289.606518,38.1545577 281.298381,35.6527252 C293.208431,32.0920259 293.394203,21.092268 278.733695,19.6389213 C269.744394,18.7523798 260.791215,18.179346 251.843196,17.822238 C263.510711,13.0780992 260.847979,2.68874686 243.24092,2.03889329 C193.665595,0.207676499 143.894177,-0.151507746 94.045354,0.0498845767 C81.1032372,0.20560029 68.1559601,0.431907126 55.193202,0.768253067 C37.4468146,1.22501916 32.1419916,11.5707711 42.5813465,16.43533 C33.555923,16.6948562 24.4685754,17.1703082 15.2625402,17.9592678 C0.256289998,19.2527463 -2.35999916,30.2400471 8.62635117,33.9232427 C-0.306186369,36.333722 -1.63755245,41.2148905 1.86631409,45.0890975 C-3.1340492,50.2069539 1.90759676,58.2335799 17.0634967,58.8522903 C41.1209721,59.8343374 65.2300509,60.3575422 89.3804123,60.6772785 C107.895689,62.0434243 178.999927,62.4129896 193.841046,61.495305 C218.03269,61.4392473 242.244976,61.177645 266.519185,60.4572003 C281.819575,60.0004342 288.889232,52.0402469 285.199593,46.8767139" id="Fill-1" fill="#FEFEFE" mask="url(#mask-2)"></path>
            </g>
        </g>
    </g>
</svg>