<?xml version="1.0" encoding="UTF-8"?>
<svg width="87px" height="32px" viewBox="0 0 87 32" version="1.1" xmlns="http://www.w3.org/2000/svg" xmlns:xlink="http://www.w3.org/1999/xlink">
    <!-- Generator: Sketch 46.2 (44496) - http://www.bohemiancoding.com/sketch -->
    <title>Logo</title>
    <desc>Created with Sketch.</desc>
    <defs></defs>
    <g id="designs" stroke="none" stroke-width="1" fill="none" fill-rule="evenodd">
        <g id="1.1-BRIN-input-screen" transform="translate(-117.000000, -22.000000)" fill="#3ABAFF">
            <g id="Logo" transform="translate(117.000000, 22.000000)">
                <polyline id="Fill-53" points="5.88456599 0 3.11543401 6.09962709 3.11543401 0 1 0 1 14 3.11543401 14 3.11543401 9.69994991 3.76913197 8.42010352 5.82687574 14 8 14 5.05779728 6.23988423 8 0 5.88456599 0"></polyline>
                <path d="M12.2514667,1.99983303 L13.3363331,1.99983303 C14.1345332,1.99983303 14.4822008,2.439695 14.4822008,3.43980631 L14.4822008,4.81978071 C14.4822008,5.9398898 13.9710657,6.29988312 13.1317993,6.29988312 L12.2514667,6.29988312 L12.2514667,1.99983303 Z M12.2514667,8.30010575 L13.029333,8.30010575 C14.0524008,8.30010575 14.5029333,8.77970724 14.5029333,10.079813 L14.5029333,12.279902 C14.5029333,13.4202705 14.5846671,13.6400067 14.7078658,14 L17,14 C16.7747337,13.4798798 16.7544,12.9800189 16.7544,12.3001614 L16.7544,10.1402015 C16.7544,8.67996883 16.3859999,7.61985863 15.2604659,7.1601269 C16.2631999,6.70000557 16.7340662,5.75989314 16.7340662,4.31991985 L16.7340662,3.21968053 C16.7340662,1.0597206 15.7309335,0 13.3977331,0 L10,0 L10,14 L12.2514667,14 L12.2514667,8.30010575 L12.2514667,8.30010575 Z" id="Fill-54"></path>
                <path d="M21.8858531,2.47982412 L22.9872495,9.56008237 L20.7844566,9.56008237 L21.8858531,2.47982412 Z M20.4934224,11.4597874 L23.2989273,11.4597874 L23.6935843,14 L26,14 L23.6729407,0 L20.3274641,0 L18,14 L20.0987654,14 L20.4934224,11.4597874 L20.4934224,11.4597874 Z" id="Fill-55"></path>
                <path d="M30.8856565,2.47982412 L31.9869972,9.56008237 L29.7843157,9.56008237 L30.8856565,2.47982412 Z M29.493701,11.4597874 L32.2986592,11.4597874 L32.6932962,14 L35,14 L32.6726537,0 L29.3273463,0 L27,14 L29.0986592,14 L29.493701,11.4597874 L29.493701,11.4597874 Z" id="Fill-56"></path>
                <polyline id="Fill-57" points="37.9855995 3.85979852 40.7334785 14 43 14 43 0 41.0343269 0 41.0343269 8.37958479 38.7678053 0 36 0 36 14 37.9855995 14 37.9855995 3.85979852"></polyline>
                <polyline id="Fill-58" points="55 0 53.0191879 0 51.842842 11.1200534 50.7079054 0 48.5196447 0 47.4261175 11.0397952 46.2083623 0 44 0 45.6097365 14 48.7262892 14 49.5520632 6.54026827 50.377435 14 53.3906655 14 55 0"></polyline>
                <path d="M58.8860612,2.47982412 L59.9869972,9.56008237 L57.7847205,9.56008237 L58.8860612,2.47982412 Z M57.493701,11.4597874 L60.299064,11.4597874 L60.6932962,14 L63,14 L60.6726537,0 L57.3273463,0 L55,14 L57.099064,14 L57.493701,11.4597874 L57.493701,11.4597874 Z" id="Fill-59"></path>
                <polyline id="Fill-60" points="64.3676883 14 66.6323117 14 66.6323117 1.99983303 69 1.99983303 69 0 62 0 62 1.99983303 64.3676883 1.99983303 64.3676883 14"></polyline>
                <polyline id="Fill-61" points="77 12.000167 73.2001299 12.000167 73.2001299 7.8999833 76.22 7.8999833 76.22 5.89976067 73.2001299 5.89976067 73.2001299 1.99983303 77 1.99983303 77 0 71 0 71 14 77 14 77 12.000167"></polyline>
                <path d="M81.2514667,1.99983303 L82.3363331,1.99983303 C83.1341345,1.99983303 83.4822008,2.439695 83.4822008,3.43980631 L83.4822008,4.81978071 C83.4822008,5.9398898 82.970667,6.29988312 82.1314006,6.29988312 L81.2514667,6.29988312 L81.2514667,1.99983303 Z M81.2514667,8.30010575 L82.0289343,8.30010575 C83.0524008,8.30010575 83.5029333,8.77970724 83.5029333,10.079813 L83.5029333,12.279902 C83.5029333,13.4202705 83.5846671,13.6400067 83.7074671,14 L86,14 C85.774335,13.4798798 85.7540013,12.9800189 85.7540013,12.3001614 L85.7540013,10.1402015 C85.7540013,8.67996883 85.3859999,7.61985863 84.2600672,7.1601269 C85.2631999,6.70000557 85.7336675,5.75989314 85.7336675,4.31991985 L85.7336675,3.21968053 C85.7336675,1.0597206 84.7309335,0 82.3973344,0 L79,0 L79,14 L81.2514667,14 L81.2514667,8.30010575 L81.2514667,8.30010575 Z" id="Fill-62"></path>
                <path d="M14.2183078,21 C17.1594192,21 18,22.3358901 18,23.1819538 C18,24.1619971 17.5378833,24.6518234 16.52926,24.6518234 C15.7100531,24.6518234 15.1429098,24.1393416 15.1429098,23.4046021 C15.1429098,22.3804197 16.0251327,22.3136252 16.0251327,22.2468307 C16.0251327,22.1355066 15.4369841,21.8460637 14.3867188,21.8460637 C13.3150796,21.8460637 12.3278302,22.5140087 12.3278302,23.4268669 C12.3278302,25.3420333 17.4534935,25.0080608 17.4534935,28.3481766 C17.4534935,30.3520116 15.3949735,32 11.8657134,32 C9.93285672,32 8,31.064877 8,29.2165051 C8,28.2813821 8.63052771,27.6802315 9.63878243,27.6802315 C10.4369841,27.6802315 11.0251327,28.3481766 11.0251327,29.0161216 C11.0251327,30.2188133 9.97486733,30.3742765 9.97486733,30.4637264 C9.97486733,30.7976989 10.6890478,31.1539363 11.9917453,31.1539363 C13.7141804,31.1539363 14.5964033,30.307482 14.5964033,29.6395369 C14.5964033,27.3236036 9.5547612,27.9028799 9.5547612,24.4737048 C9.5547612,22.4249494 11.6766657,21 14.2183078,21" id="Fill-63"></path>
                <path d="M29.3465292,28.3927062 C28.5358145,30.4414616 27.0044645,32 24.6620047,32 C22.2519853,32 20,30.3301374 20,27.5239871 C20,23.7163098 23.6486113,21 27.0044645,21 C28.9862115,21 30,22.0909769 30,23.1596889 C30,24.1838713 29.3244044,25.0080608 28.1980167,25.0080608 C27.4773814,25.0080608 26.6666667,24.5850289 26.6666667,23.5381911 C26.6666667,22.3136252 27.8827387,22.2468307 27.8827387,22.1355066 C27.8827387,22.0015269 27.7025799,21.935123 27.3647821,21.935123 C24.6845245,21.935123 23.3333333,26.2326267 23.3333333,28.5040304 C23.3333333,30.3969319 24.3467267,31.064877 25.225001,31.064877 C26.7113113,31.064877 28.1079373,29.1051809 28.6037691,27.9028799 L29.3465292,28.3927062" id="Fill-64"></path>
                <path d="M33.2667846,17.0873268 L38.2443552,17 L36.4667906,23.4999364 L36.5108399,23.5434092 C37.3774026,22.3696454 38.2887943,21.2610906 40.0223095,21.2610906 C41.7109958,21.2610906 42.8219737,22.6304818 42.8219737,24.3915088 C42.8219737,26.2825728 40.9110918,29.1956273 40.9110918,30.3697725 C40.9110918,30.5215457 41.0888482,30.6088725 41.3110438,30.6088725 C41.955411,30.6088725 43.0219497,28.9347909 43.2885844,28.4996822 L44,28.9130545 C43.2223155,30.3911275 41.9998501,32 40.1107979,32 C38.6887463,32 37.8888422,31.1305453 37.8888422,29.6303546 C37.8888422,27.8697089 39.7997241,24.8914453 39.7997241,23.4347273 C39.7997241,22.7826363 39.5330894,22.5217999 39.1109179,22.5217999 C37.7555249,22.5217999 35.8886923,25.0001271 34.1555669,31.7391636 L31,31.7391636 L34.3555429,19.7609 C34.4888602,19.2609635 34.5995682,18.8697089 34.5995682,18.4784543 C34.5995682,18.0871997 34.2440553,17.8694547 33.0441992,17.8694547 L33.2667846,17.0873268" id="Fill-65"></path>
                <path d="M54.6249358,23.5827208 C54.6249358,22.3358901 54.1562339,21.8460637 53.1246788,21.8460637 C50.8749101,21.8460637 49.3746531,27.1904052 49.3746531,29.4168886 C49.3746531,30.6637193 49.8437661,31.1539363 50.8749101,31.1539363 C53.0313496,31.1539363 54.6249358,26.3443415 54.6249358,23.5827208 Z M53.0782198,21 C55.7736664,21 58,23.0483648 58,25.5869465 C58,29.0829161 54.7186761,32 50.9217802,32 C48.2263336,32 46,29.9512446 46,27.4130535 C46,23.9170839 49.6562853,21 53.0782198,21 L53.0782198,21 Z" id="Fill-66"></path>
                <path d="M66.6250514,23.5827208 C66.6250514,22.3358901 66.1559545,21.8460637 65.1248458,21.8460637 C62.8751542,21.8460637 61.3749486,27.1904052 61.3749486,29.4168886 C61.3749486,30.6637193 61.8436344,31.1539363 62.8751542,31.1539363 C65.0311087,31.1539363 66.6250514,26.3443415 66.6250514,23.5827208 Z M65.0779773,21 C67.7733315,21 70,23.0483648 70,25.5869465 C70,29.0829161 66.7183774,32 62.9220227,32 C60.2262574,32 58,29.9512446 58,27.4130535 C58,23.9170839 61.6561601,21 65.0779773,21 L65.0779773,21 Z" id="Fill-67"></path>
                <path d="M75.7457906,27.8914453 C75.3010267,29.3477819 75.0435318,30.2824457 75.0435318,30.5650184 C75.0435318,30.7606457 75.1839836,30.8693276 75.4180698,30.8693276 C75.9564682,30.8693276 76.7293634,29.8259819 77.5486653,28.6304818 L78.2041068,29.0434727 C77.4546201,30.4349816 76.1905544,32 74.3412731,32 C72.7724846,32 72,31.0432185 72,29.8042456 C72,28.347909 72.3979466,27.3259184 72.9835729,25.347909 L74.7162218,19.4565908 C74.786037,19.1957544 74.9264887,18.8262362 74.9264887,18.5867548 C74.9264887,18.0871997 74.5753593,17.9133088 73.287885,17.8694547 L73.5215606,17.0873268 L79,17 L75.7457906,27.8914453" id="Fill-68"></path>
                <path d="M0.73605948,25 L0,27.635113 C1.04584882,27.92073 2.12722016,28 3.20859149,28 C3.88558447,28 4.56340355,27.9689458 5.23213548,27.9383002 C5.85336638,27.9096976 6.44072697,27.8831381 7,27.8831381 L7,25.1491419 C6.37670384,25.1491419 5.72986369,25.1789703 5.10408922,25.2075729 C3.58405618,25.276219 2.01239157,25.3489512 0.73605948,25" id="Fill-69"></path>
                <path d="M85.1063441,25.2076011 C83.5861316,25.277074 82.0130422,25.3485901 80.7349071,25 L80,27.6350633 C81.0472116,27.9215366 82.1299498,28 83.2131012,28 C83.8893479,28 84.5655946,27.9693502 85.2331661,27.9387004 C85.8544703,27.9109113 86.4410741,27.8839395 87,27.8839395 L87,25.1499796 C86.3774565,25.1499796 85.7309531,25.1789947 85.1063441,25.2076011" id="Fill-70"></path>
            </g>
        </g>
    </g>
</svg>